<?xml version="1.0" encoding="UTF-8" standalone="no"?>
<!DOCTYPE svg PUBLIC "-//W3C//DTD SVG 1.1//EN"
 "http://www.w3.org/Graphics/SVG/1.1/DTD/svg11.dtd">
<!-- Generated by graphviz version 2.38.0 (20140413.2041)
 -->
<!-- Title: T Pages: 1 -->
<svg width="120pt" height="396pt"
 viewBox="0.00 0.00 120.22 396.00" xmlns="http://www.w3.org/2000/svg" xmlns:xlink="http://www.w3.org/1999/xlink">
<g id="graph0" class="graph" transform="scale(1 1) rotate(0) translate(4 392)">
<title>T</title>
<polygon fill="white" stroke="none" points="-4,4 -4,-392 116.215,-392 116.215,4 -4,4"/>
<!-- n0 -->
<g id="node1" class="node"><title>n0</title>
<polygon fill="none" stroke="black" points="56.1075,-388 29.1075,-370 56.1075,-352 83.1075,-370 56.1075,-388"/>
<text text-anchor="middle" x="56.1075" y="-365.8" font-family="Times,serif" font-size="14.00">n0</text>
</g>
<!-- n1 -->
<g id="node2" class="node"><title>n1</title>
<ellipse fill="none" stroke="black" cx="56.1075" cy="-282" rx="27" ry="18"/>
<text text-anchor="middle" x="56.1075" y="-277.8" font-family="Times,serif" font-size="14.00">n1</text>
</g>
<!-- n0&#45;&gt;n1 -->
<g id="edge4" class="edge"><title>n0&#45;&gt;n1</title>
<path fill="none" stroke="black" d="M56.1075,-351.597C56.1075,-339.746 56.1075,-323.817 56.1075,-310.292"/>
<polygon fill="black" stroke="black" points="59.6076,-310.084 56.1075,-300.084 52.6076,-310.084 59.6076,-310.084"/>
<text text-anchor="middle" x="67.2208" y="-321.2" font-family="Helvetica,sans-Serif" font-size="16.00" fill="red"> &#160;t &#160;</text>
</g>
<!-- n2 -->
<g id="node3" class="node"><title>n2</title>
<ellipse fill="none" stroke="black" cx="56.1075" cy="-194" rx="27" ry="18"/>
<text text-anchor="middle" x="56.1075" y="-189.8" font-family="Times,serif" font-size="14.00">n2</text>
</g>
<!-- n1&#45;&gt;n2 -->
<g id="edge3" class="edge"><title>n1&#45;&gt;n2</title>
<path fill="none" stroke="black" d="M56.1075,-263.597C56.1075,-251.746 56.1075,-235.817 56.1075,-222.292"/>
<polygon fill="black" stroke="black" points="59.6076,-222.084 56.1075,-212.084 52.6076,-222.084 59.6076,-222.084"/>
<text text-anchor="middle" x="69.4474" y="-233.2" font-family="Helvetica,sans-Serif" font-size="16.00" fill="red"> &#160;e &#160;</text>
</g>
<!-- n3 -->
<g id="node4" class="node"><title>n3</title>
<ellipse fill="none" stroke="black" cx="56.1075" cy="-106" rx="27" ry="18"/>
<text text-anchor="middle" x="56.1075" y="-101.8" font-family="Times,serif" font-size="14.00">n3</text>
</g>
<!-- n2&#45;&gt;n3 -->
<g id="edge2" class="edge"><title>n2&#45;&gt;n3</title>
<path fill="none" stroke="black" d="M56.1075,-175.597C56.1075,-163.746 56.1075,-147.817 56.1075,-134.292"/>
<polygon fill="black" stroke="black" points="59.6076,-134.084 56.1075,-124.084 52.6076,-134.084 59.6076,-134.084"/>
<text text-anchor="middle" x="68.9982" y="-145.2" font-family="Helvetica,sans-Serif" font-size="16.00" fill="red"> &#160;s &#160;</text>
</g>
<!-- n4 -->
<g id="node5" class="node"><title>n4</title>
<ellipse fill="green" stroke="black" cx="56.1075" cy="-18" rx="56.2153" ry="18"/>
<text text-anchor="middle" x="56.1075" y="-13.8" font-family="Times,serif" font-size="14.00">n4 (count=1)</text>
</g>
<!-- n3&#45;&gt;n4 -->
<g id="edge1" class="edge"><title>n3&#45;&gt;n4</title>
<path fill="none" stroke="black" d="M56.1075,-87.5966C56.1075,-75.7459 56.1075,-59.8169 56.1075,-46.2917"/>
<polygon fill="black" stroke="black" points="59.6076,-46.084 56.1075,-36.084 52.6076,-46.084 59.6076,-46.084"/>
<text text-anchor="middle" x="67.2208" y="-57.2" font-family="Helvetica,sans-Serif" font-size="16.00" fill="red"> &#160;t &#160;</text>
</g>
</g>
</svg>
