<?xml version="1.0" encoding="UTF-8" standalone="no"?>
<!DOCTYPE svg PUBLIC "-//W3C//DTD SVG 1.1//EN"
 "http://www.w3.org/Graphics/SVG/1.1/DTD/svg11.dtd">
<!-- Generated by graphviz version 2.38.0 (20140413.2041)
 -->
<!-- Title: T Pages: 1 -->
<svg width="120pt" height="836pt"
 viewBox="0.00 0.00 120.22 836.00" xmlns="http://www.w3.org/2000/svg" xmlns:xlink="http://www.w3.org/1999/xlink">
<g id="graph0" class="graph" transform="scale(1 1) rotate(0) translate(4 832)">
<title>T</title>
<polygon fill="white" stroke="none" points="-4,4 -4,-832 116.215,-832 116.215,4 -4,4"/>
<!-- n0 -->
<g id="node1" class="node"><title>n0</title>
<polygon fill="none" stroke="black" points="56.1075,-828 29.1075,-810 56.1075,-792 83.1075,-810 56.1075,-828"/>
<text text-anchor="middle" x="56.1075" y="-805.8" font-family="Times,serif" font-size="14.00">n0</text>
</g>
<!-- n1 -->
<g id="node2" class="node"><title>n1</title>
<ellipse fill="none" stroke="black" cx="56.1075" cy="-722" rx="27" ry="18"/>
<text text-anchor="middle" x="56.1075" y="-717.8" font-family="Times,serif" font-size="14.00">n1</text>
</g>
<!-- n0&#45;&gt;n1 -->
<g id="edge9" class="edge"><title>n0&#45;&gt;n1</title>
<path fill="none" stroke="black" d="M56.1075,-791.597C56.1075,-779.746 56.1075,-763.817 56.1075,-750.292"/>
<polygon fill="black" stroke="black" points="59.6076,-750.084 56.1075,-740.084 52.6076,-750.084 59.6076,-750.084"/>
<text text-anchor="middle" x="67.2208" y="-761.2" font-family="Helvetica,sans-Serif" font-size="16.00" fill="red"> &#160;t &#160;</text>
</g>
<!-- n2 -->
<g id="node3" class="node"><title>n2</title>
<ellipse fill="none" stroke="black" cx="56.1075" cy="-634" rx="27" ry="18"/>
<text text-anchor="middle" x="56.1075" y="-629.8" font-family="Times,serif" font-size="14.00">n2</text>
</g>
<!-- n1&#45;&gt;n2 -->
<g id="edge8" class="edge"><title>n1&#45;&gt;n2</title>
<path fill="none" stroke="black" d="M56.1075,-703.597C56.1075,-691.746 56.1075,-675.817 56.1075,-662.292"/>
<polygon fill="black" stroke="black" points="59.6076,-662.084 56.1075,-652.084 52.6076,-662.084 59.6076,-662.084"/>
<text text-anchor="middle" x="69.4474" y="-673.2" font-family="Helvetica,sans-Serif" font-size="16.00" fill="red"> &#160;e &#160;</text>
</g>
<!-- n3 -->
<g id="node4" class="node"><title>n3</title>
<ellipse fill="none" stroke="black" cx="56.1075" cy="-546" rx="27" ry="18"/>
<text text-anchor="middle" x="56.1075" y="-541.8" font-family="Times,serif" font-size="14.00">n3</text>
</g>
<!-- n2&#45;&gt;n3 -->
<g id="edge7" class="edge"><title>n2&#45;&gt;n3</title>
<path fill="none" stroke="black" d="M56.1075,-615.597C56.1075,-603.746 56.1075,-587.817 56.1075,-574.292"/>
<polygon fill="black" stroke="black" points="59.6076,-574.084 56.1075,-564.084 52.6076,-574.084 59.6076,-574.084"/>
<text text-anchor="middle" x="68.9982" y="-585.2" font-family="Helvetica,sans-Serif" font-size="16.00" fill="red"> &#160;s &#160;</text>
</g>
<!-- n4 -->
<g id="node5" class="node"><title>n4</title>
<ellipse fill="green" stroke="black" cx="56.1075" cy="-458" rx="56.2153" ry="18"/>
<text text-anchor="middle" x="56.1075" y="-453.8" font-family="Times,serif" font-size="14.00">n4 (count=1)</text>
</g>
<!-- n3&#45;&gt;n4 -->
<g id="edge6" class="edge"><title>n3&#45;&gt;n4</title>
<path fill="none" stroke="black" d="M56.1075,-527.597C56.1075,-515.746 56.1075,-499.817 56.1075,-486.292"/>
<polygon fill="black" stroke="black" points="59.6076,-486.084 56.1075,-476.084 52.6076,-486.084 59.6076,-486.084"/>
<text text-anchor="middle" x="67.2208" y="-497.2" font-family="Helvetica,sans-Serif" font-size="16.00" fill="red"> &#160;t &#160;</text>
</g>
<!-- n5 -->
<g id="node6" class="node"><title>n5</title>
<ellipse fill="none" stroke="black" cx="56.1075" cy="-370" rx="27" ry="18"/>
<text text-anchor="middle" x="56.1075" y="-365.8" font-family="Times,serif" font-size="14.00">n5</text>
</g>
<!-- n4&#45;&gt;n5 -->
<g id="edge5" class="edge"><title>n4&#45;&gt;n5</title>
<path fill="none" stroke="black" d="M56.1075,-439.597C56.1075,-427.746 56.1075,-411.817 56.1075,-398.292"/>
<polygon fill="black" stroke="black" points="59.6076,-398.084 56.1075,-388.084 52.6076,-398.084 59.6076,-398.084"/>
<text text-anchor="middle" x="69.4474" y="-409.2" font-family="Helvetica,sans-Serif" font-size="16.00" fill="red"> &#160;a &#160;</text>
</g>
<!-- n6 -->
<g id="node7" class="node"><title>n6</title>
<ellipse fill="none" stroke="black" cx="56.1075" cy="-282" rx="27" ry="18"/>
<text text-anchor="middle" x="56.1075" y="-277.8" font-family="Times,serif" font-size="14.00">n6</text>
</g>
<!-- n5&#45;&gt;n6 -->
<g id="edge4" class="edge"><title>n5&#45;&gt;n6</title>
<path fill="none" stroke="black" d="M56.1075,-351.597C56.1075,-339.746 56.1075,-323.817 56.1075,-310.292"/>
<polygon fill="black" stroke="black" points="59.6076,-310.084 56.1075,-300.084 52.6076,-310.084 59.6076,-310.084"/>
<text text-anchor="middle" x="71.6622" y="-321.2" font-family="Helvetica,sans-Serif" font-size="16.00" fill="red"> &#160;m &#160;</text>
</g>
<!-- n7 -->
<g id="node8" class="node"><title>n7</title>
<ellipse fill="none" stroke="black" cx="56.1075" cy="-194" rx="27" ry="18"/>
<text text-anchor="middle" x="56.1075" y="-189.8" font-family="Times,serif" font-size="14.00">n7</text>
</g>
<!-- n6&#45;&gt;n7 -->
<g id="edge3" class="edge"><title>n6&#45;&gt;n7</title>
<path fill="none" stroke="black" d="M56.1075,-263.597C56.1075,-251.746 56.1075,-235.817 56.1075,-222.292"/>
<polygon fill="black" stroke="black" points="59.6076,-222.084 56.1075,-212.084 52.6076,-222.084 59.6076,-222.084"/>
<text text-anchor="middle" x="69.4474" y="-233.2" font-family="Helvetica,sans-Serif" font-size="16.00" fill="red"> &#160;e &#160;</text>
</g>
<!-- n8 -->
<g id="node9" class="node"><title>n8</title>
<ellipse fill="none" stroke="black" cx="56.1075" cy="-106" rx="27" ry="18"/>
<text text-anchor="middle" x="56.1075" y="-101.8" font-family="Times,serif" font-size="14.00">n8</text>
</g>
<!-- n7&#45;&gt;n8 -->
<g id="edge2" class="edge"><title>n7&#45;&gt;n8</title>
<path fill="none" stroke="black" d="M56.1075,-175.597C56.1075,-163.746 56.1075,-147.817 56.1075,-134.292"/>
<polygon fill="black" stroke="black" points="59.6076,-134.084 56.1075,-124.084 52.6076,-134.084 59.6076,-134.084"/>
<text text-anchor="middle" x="69.4474" y="-145.2" font-family="Helvetica,sans-Serif" font-size="16.00" fill="red"> &#160;n &#160;</text>
</g>
<!-- n9 -->
<g id="node10" class="node"><title>n9</title>
<ellipse fill="green" stroke="black" cx="56.1075" cy="-18" rx="56.2153" ry="18"/>
<text text-anchor="middle" x="56.1075" y="-13.8" font-family="Times,serif" font-size="14.00">n9 (count=1)</text>
</g>
<!-- n8&#45;&gt;n9 -->
<g id="edge1" class="edge"><title>n8&#45;&gt;n9</title>
<path fill="none" stroke="black" d="M56.1075,-87.5966C56.1075,-75.7459 56.1075,-59.8169 56.1075,-46.2917"/>
<polygon fill="black" stroke="black" points="59.6076,-46.084 56.1075,-36.084 52.6076,-46.084 59.6076,-46.084"/>
<text text-anchor="middle" x="67.2208" y="-57.2" font-family="Helvetica,sans-Serif" font-size="16.00" fill="red"> &#160;t &#160;</text>
</g>
</g>
</svg>
