<?xml version="1.0" encoding="UTF-8" standalone="no"?>
<!DOCTYPE svg PUBLIC "-//W3C//DTD SVG 1.1//EN"
 "http://www.w3.org/Graphics/SVG/1.1/DTD/svg11.dtd">
<!-- Generated by graphviz version 2.38.0 (20140413.2041)
 -->
<!-- Title: T Pages: 1 -->
<svg width="725pt" height="836pt"
 viewBox="0.00 0.00 725.06 836.00" xmlns="http://www.w3.org/2000/svg" xmlns:xlink="http://www.w3.org/1999/xlink">
<g id="graph0" class="graph" transform="scale(1 1) rotate(0) translate(4 832)">
<title>T</title>
<polygon fill="white" stroke="none" points="-4,4 -4,-832 721.059,-832 721.059,4 -4,4"/>
<!-- n0 -->
<g id="node1" class="node"><title>n0</title>
<polygon fill="none" stroke="black" points="440.529,-828 413.529,-810 440.529,-792 467.529,-810 440.529,-828"/>
<text text-anchor="middle" x="440.529" y="-805.8" font-family="Times,serif" font-size="14.00">n0</text>
</g>
<!-- n13 -->
<g id="node2" class="node"><title>n13</title>
<ellipse fill="none" stroke="black" cx="402.529" cy="-722" rx="27" ry="18"/>
<text text-anchor="middle" x="402.529" y="-717.8" font-family="Times,serif" font-size="14.00">n13</text>
</g>
<!-- n0&#45;&gt;n13 -->
<g id="edge7" class="edge"><title>n0&#45;&gt;n13</title>
<path fill="none" stroke="black" d="M433.704,-796.167C430.301,-789.604 426.206,-781.448 422.85,-774 419.23,-765.969 415.575,-757.09 412.383,-749.021"/>
<polygon fill="black" stroke="black" points="415.641,-747.742 408.751,-739.693 409.118,-750.282 415.641,-747.742"/>
<text text-anchor="middle" x="435.869" y="-761.2" font-family="Helvetica,sans-Serif" font-size="16.00" fill="red"> &#160;p &#160;</text>
</g>
<!-- n1 -->
<g id="node9" class="node"><title>n1</title>
<ellipse fill="none" stroke="black" cx="474.529" cy="-722" rx="27" ry="18"/>
<text text-anchor="middle" x="474.529" y="-717.8" font-family="Times,serif" font-size="14.00">n1</text>
</g>
<!-- n0&#45;&gt;n1 -->
<g id="edge19" class="edge"><title>n0&#45;&gt;n1</title>
<path fill="none" stroke="black" d="M445.992,-795.183C450.889,-782.797 458.203,-764.295 464.201,-749.124"/>
<polygon fill="black" stroke="black" points="467.492,-750.32 467.914,-739.733 460.982,-747.746 467.492,-750.32"/>
<text text-anchor="middle" x="471.643" y="-761.2" font-family="Helvetica,sans-Serif" font-size="16.00" fill="red"> &#160;t &#160;</text>
</g>
<!-- n14 -->
<g id="node3" class="node"><title>n14</title>
<ellipse fill="none" stroke="black" cx="398.529" cy="-634" rx="27" ry="18"/>
<text text-anchor="middle" x="398.529" y="-629.8" font-family="Times,serif" font-size="14.00">n14</text>
</g>
<!-- n13&#45;&gt;n14 -->
<g id="edge6" class="edge"><title>n13&#45;&gt;n14</title>
<path fill="none" stroke="black" d="M401.72,-703.597C401.169,-691.746 400.428,-675.817 399.799,-662.292"/>
<polygon fill="black" stroke="black" points="403.285,-661.911 399.324,-652.084 396.292,-662.236 403.285,-661.911"/>
<text text-anchor="middle" x="411.197" y="-673.2" font-family="Helvetica,sans-Serif" font-size="16.00" fill="red"> &#160;i &#160;</text>
</g>
<!-- n15 -->
<g id="node4" class="node"><title>n15</title>
<ellipse fill="green" stroke="black" cx="338.529" cy="-546" rx="60.5585" ry="18"/>
<text text-anchor="middle" x="338.529" y="-541.8" font-family="Times,serif" font-size="14.00">n15 (count=1)</text>
</g>
<!-- n14&#45;&gt;n15 -->
<g id="edge5" class="edge"><title>n14&#45;&gt;n15</title>
<path fill="none" stroke="black" d="M387.524,-617.226C378.783,-604.697 366.387,-586.93 356.251,-572.401"/>
<polygon fill="black" stroke="black" points="358.877,-570.048 350.285,-563.85 353.136,-574.054 358.877,-570.048"/>
<text text-anchor="middle" x="386.869" y="-585.2" font-family="Helvetica,sans-Serif" font-size="16.00" fill="red"> &#160;n &#160;</text>
</g>
<!-- n17 -->
<g id="node5" class="node"><title>n17</title>
<ellipse fill="green" stroke="black" cx="60.5293" cy="-458" rx="60.5585" ry="18"/>
<text text-anchor="middle" x="60.5293" y="-453.8" font-family="Times,serif" font-size="14.00">n17 (count=1)</text>
</g>
<!-- n15&#45;&gt;n17 -->
<g id="edge1" class="edge"><title>n15&#45;&gt;n17</title>
<path fill="none" stroke="black" d="M298.106,-532.495C248.487,-517.145 164.341,-491.114 110.656,-474.507"/>
<polygon fill="black" stroke="black" points="111.589,-471.132 101.002,-471.52 109.521,-477.819 111.589,-471.132"/>
<text text-anchor="middle" x="237.42" y="-497.2" font-family="Helvetica,sans-Serif" font-size="16.00" fill="red"> &#160;k &#160;</text>
</g>
<!-- n18 -->
<g id="node6" class="node"><title>n18</title>
<ellipse fill="green" stroke="black" cx="199.529" cy="-458" rx="60.5585" ry="18"/>
<text text-anchor="middle" x="199.529" y="-453.8" font-family="Times,serif" font-size="14.00">n18 (count=1)</text>
</g>
<!-- n15&#45;&gt;n18 -->
<g id="edge2" class="edge"><title>n15&#45;&gt;n18</title>
<path fill="none" stroke="black" d="M313.357,-529.426C290.921,-515.545 257.907,-495.119 233.204,-479.835"/>
<polygon fill="black" stroke="black" points="234.859,-476.743 224.514,-474.458 231.176,-482.696 234.859,-476.743"/>
<text text-anchor="middle" x="294.869" y="-497.2" font-family="Helvetica,sans-Serif" font-size="16.00" fill="red"> &#160;e &#160;</text>
</g>
<!-- n19 -->
<g id="node7" class="node"><title>n19</title>
<ellipse fill="green" stroke="black" cx="338.529" cy="-458" rx="60.5585" ry="18"/>
<text text-anchor="middle" x="338.529" y="-453.8" font-family="Times,serif" font-size="14.00">n19 (count=1)</text>
</g>
<!-- n15&#45;&gt;n19 -->
<g id="edge3" class="edge"><title>n15&#45;&gt;n19</title>
<path fill="none" stroke="black" d="M338.529,-527.597C338.529,-515.746 338.529,-499.817 338.529,-486.292"/>
<polygon fill="black" stroke="black" points="342.029,-486.084 338.529,-476.084 335.029,-486.084 342.029,-486.084"/>
<text text-anchor="middle" x="349.643" y="-497.2" font-family="Helvetica,sans-Serif" font-size="16.00" fill="red"> &#160;t &#160;</text>
</g>
<!-- n16 -->
<g id="node8" class="node"><title>n16</title>
<ellipse fill="green" stroke="black" cx="477.529" cy="-458" rx="60.5585" ry="18"/>
<text text-anchor="middle" x="477.529" y="-453.8" font-family="Times,serif" font-size="14.00">n16 (count=1)</text>
</g>
<!-- n15&#45;&gt;n16 -->
<g id="edge4" class="edge"><title>n15&#45;&gt;n16</title>
<path fill="none" stroke="black" d="M363.701,-529.426C386.137,-515.545 419.151,-495.119 443.855,-479.835"/>
<polygon fill="black" stroke="black" points="445.882,-482.696 452.545,-474.458 442.199,-476.743 445.882,-482.696"/>
<text text-anchor="middle" x="432.869" y="-497.2" font-family="Helvetica,sans-Serif" font-size="16.00" fill="red"> &#160;g &#160;</text>
</g>
<!-- n2 -->
<g id="node10" class="node"><title>n2</title>
<ellipse fill="none" stroke="black" cx="476.529" cy="-634" rx="27" ry="18"/>
<text text-anchor="middle" x="476.529" y="-629.8" font-family="Times,serif" font-size="14.00">n2</text>
</g>
<!-- n1&#45;&gt;n2 -->
<g id="edge18" class="edge"><title>n1&#45;&gt;n2</title>
<path fill="none" stroke="black" d="M474.934,-703.597C475.21,-691.746 475.58,-675.817 475.895,-662.292"/>
<polygon fill="black" stroke="black" points="479.398,-662.163 476.132,-652.084 472.4,-662 479.398,-662.163"/>
<text text-anchor="middle" x="488.869" y="-673.2" font-family="Helvetica,sans-Serif" font-size="16.00" fill="red"> &#160;e &#160;</text>
</g>
<!-- n3 -->
<g id="node11" class="node"><title>n3</title>
<ellipse fill="none" stroke="black" cx="506.529" cy="-546" rx="27" ry="18"/>
<text text-anchor="middle" x="506.529" y="-541.8" font-family="Times,serif" font-size="14.00">n3</text>
</g>
<!-- n2&#45;&gt;n3 -->
<g id="edge17" class="edge"><title>n2&#45;&gt;n3</title>
<path fill="none" stroke="black" d="M482.456,-616.009C486.716,-603.798 492.539,-587.105 497.391,-573.195"/>
<polygon fill="black" stroke="black" points="500.728,-574.258 500.717,-563.663 494.118,-571.952 500.728,-574.258"/>
<text text-anchor="middle" x="506.42" y="-585.2" font-family="Helvetica,sans-Serif" font-size="16.00" fill="red"> &#160;s &#160;</text>
</g>
<!-- n4 -->
<g id="node12" class="node"><title>n4</title>
<ellipse fill="green" stroke="black" cx="612.529" cy="-458" rx="56.2153" ry="18"/>
<text text-anchor="middle" x="612.529" y="-453.8" font-family="Times,serif" font-size="14.00">n4 (count=1)</text>
</g>
<!-- n3&#45;&gt;n4 -->
<g id="edge16" class="edge"><title>n3&#45;&gt;n4</title>
<path fill="none" stroke="black" d="M523.092,-531.562C539.599,-518.17 565.247,-497.361 584.852,-481.455"/>
<polygon fill="black" stroke="black" points="587.279,-483.993 592.84,-474.974 582.869,-478.557 587.279,-483.993"/>
<text text-anchor="middle" x="579.643" y="-497.2" font-family="Helvetica,sans-Serif" font-size="16.00" fill="red"> &#160;t &#160;</text>
</g>
<!-- n5 -->
<g id="node13" class="node"><title>n5</title>
<ellipse fill="none" stroke="black" cx="573.529" cy="-370" rx="27" ry="18"/>
<text text-anchor="middle" x="573.529" y="-365.8" font-family="Times,serif" font-size="14.00">n5</text>
</g>
<!-- n4&#45;&gt;n5 -->
<g id="edge12" class="edge"><title>n4&#45;&gt;n5</title>
<path fill="none" stroke="black" d="M603.649,-440.03C600.755,-434.341 597.585,-427.935 594.85,-422 591.137,-413.945 587.326,-405.059 583.972,-396.991"/>
<polygon fill="black" stroke="black" points="587.18,-395.59 580.145,-387.668 580.705,-398.248 587.18,-395.59"/>
<text text-anchor="middle" x="607.869" y="-409.2" font-family="Helvetica,sans-Serif" font-size="16.00" fill="red"> &#160;a &#160;</text>
</g>
<!-- n10 -->
<g id="node18" class="node"><title>n10</title>
<ellipse fill="none" stroke="black" cx="646.529" cy="-370" rx="27" ry="18"/>
<text text-anchor="middle" x="646.529" y="-365.8" font-family="Times,serif" font-size="14.00">n10</text>
</g>
<!-- n4&#45;&gt;n10 -->
<g id="edge15" class="edge"><title>n4&#45;&gt;n10</title>
<path fill="none" stroke="black" d="M619.247,-440.009C624.074,-427.798 630.674,-411.105 636.173,-397.195"/>
<polygon fill="black" stroke="black" points="639.52,-398.249 639.942,-387.663 633.01,-395.676 639.52,-398.249"/>
<text text-anchor="middle" x="643.197" y="-409.2" font-family="Helvetica,sans-Serif" font-size="16.00" fill="red"> &#160;i &#160;</text>
</g>
<!-- n6 -->
<g id="node14" class="node"><title>n6</title>
<ellipse fill="none" stroke="black" cx="563.529" cy="-282" rx="27" ry="18"/>
<text text-anchor="middle" x="563.529" y="-277.8" font-family="Times,serif" font-size="14.00">n6</text>
</g>
<!-- n5&#45;&gt;n6 -->
<g id="edge11" class="edge"><title>n5&#45;&gt;n6</title>
<path fill="none" stroke="black" d="M571.554,-352.009C570.17,-340.112 568.292,-323.961 566.701,-310.275"/>
<polygon fill="black" stroke="black" points="570.133,-309.484 565.501,-299.956 563.179,-310.293 570.133,-309.484"/>
<text text-anchor="middle" x="584.084" y="-321.2" font-family="Helvetica,sans-Serif" font-size="16.00" fill="red"> &#160;m &#160;</text>
</g>
<!-- n7 -->
<g id="node15" class="node"><title>n7</title>
<ellipse fill="none" stroke="black" cx="550.529" cy="-194" rx="27" ry="18"/>
<text text-anchor="middle" x="550.529" y="-189.8" font-family="Times,serif" font-size="14.00">n7</text>
</g>
<!-- n6&#45;&gt;n7 -->
<g id="edge10" class="edge"><title>n6&#45;&gt;n7</title>
<path fill="none" stroke="black" d="M560.961,-264.009C559.145,-251.995 556.673,-235.641 554.591,-221.869"/>
<polygon fill="black" stroke="black" points="558.048,-221.32 553.092,-211.956 551.126,-222.366 558.048,-221.32"/>
<text text-anchor="middle" x="570.869" y="-233.2" font-family="Helvetica,sans-Serif" font-size="16.00" fill="red"> &#160;e &#160;</text>
</g>
<!-- n8 -->
<g id="node16" class="node"><title>n8</title>
<ellipse fill="none" stroke="black" cx="550.529" cy="-106" rx="27" ry="18"/>
<text text-anchor="middle" x="550.529" y="-101.8" font-family="Times,serif" font-size="14.00">n8</text>
</g>
<!-- n7&#45;&gt;n8 -->
<g id="edge9" class="edge"><title>n7&#45;&gt;n8</title>
<path fill="none" stroke="black" d="M550.529,-175.597C550.529,-163.746 550.529,-147.817 550.529,-134.292"/>
<polygon fill="black" stroke="black" points="554.029,-134.084 550.529,-124.084 547.029,-134.084 554.029,-134.084"/>
<text text-anchor="middle" x="563.869" y="-145.2" font-family="Helvetica,sans-Serif" font-size="16.00" fill="red"> &#160;n &#160;</text>
</g>
<!-- n9 -->
<g id="node17" class="node"><title>n9</title>
<ellipse fill="green" stroke="black" cx="550.529" cy="-18" rx="56.2153" ry="18"/>
<text text-anchor="middle" x="550.529" y="-13.8" font-family="Times,serif" font-size="14.00">n9 (count=1)</text>
</g>
<!-- n8&#45;&gt;n9 -->
<g id="edge8" class="edge"><title>n8&#45;&gt;n9</title>
<path fill="none" stroke="black" d="M550.529,-87.5966C550.529,-75.7459 550.529,-59.8169 550.529,-46.2917"/>
<polygon fill="black" stroke="black" points="554.029,-46.084 550.529,-36.084 547.029,-46.084 554.029,-46.084"/>
<text text-anchor="middle" x="561.643" y="-57.2" font-family="Helvetica,sans-Serif" font-size="16.00" fill="red"> &#160;t &#160;</text>
</g>
<!-- n11 -->
<g id="node19" class="node"><title>n11</title>
<ellipse fill="none" stroke="black" cx="652.529" cy="-282" rx="27" ry="18"/>
<text text-anchor="middle" x="652.529" y="-277.8" font-family="Times,serif" font-size="14.00">n11</text>
</g>
<!-- n10&#45;&gt;n11 -->
<g id="edge14" class="edge"><title>n10&#45;&gt;n11</title>
<path fill="none" stroke="black" d="M647.715,-352.009C648.539,-340.19 649.657,-324.171 650.608,-310.542"/>
<polygon fill="black" stroke="black" points="654.121,-310.469 651.326,-300.25 647.138,-309.982 654.121,-310.469"/>
<text text-anchor="middle" x="662.869" y="-321.2" font-family="Helvetica,sans-Serif" font-size="16.00" fill="red"> &#160;n &#160;</text>
</g>
<!-- n12 -->
<g id="node20" class="node"><title>n12</title>
<ellipse fill="green" stroke="black" cx="656.529" cy="-194" rx="60.5585" ry="18"/>
<text text-anchor="middle" x="656.529" y="-189.8" font-family="Times,serif" font-size="14.00">n12 (count=2)</text>
</g>
<!-- n11&#45;&gt;n12 -->
<g id="edge13" class="edge"><title>n11&#45;&gt;n12</title>
<path fill="none" stroke="black" d="M653.339,-263.597C653.89,-251.746 654.631,-235.817 655.26,-222.292"/>
<polygon fill="black" stroke="black" points="658.766,-222.236 655.735,-212.084 651.774,-221.911 658.766,-222.236"/>
<text text-anchor="middle" x="667.869" y="-233.2" font-family="Helvetica,sans-Serif" font-size="16.00" fill="red"> &#160;g &#160;</text>
</g>
</g>
</svg>
