<?xml version="1.0" encoding="UTF-8" standalone="no"?>
<!DOCTYPE svg PUBLIC "-//W3C//DTD SVG 1.1//EN"
 "http://www.w3.org/Graphics/SVG/1.1/DTD/svg11.dtd">
<!-- Generated by graphviz version 2.38.0 (20140413.2041)
 -->
<!-- Title: T Pages: 1 -->
<svg width="308pt" height="836pt"
 viewBox="0.00 0.00 308.06 836.00" xmlns="http://www.w3.org/2000/svg" xmlns:xlink="http://www.w3.org/1999/xlink">
<g id="graph0" class="graph" transform="scale(1 1) rotate(0) translate(4 832)">
<title>T</title>
<polygon fill="white" stroke="none" points="-4,4 -4,-832 304.059,-832 304.059,4 -4,4"/>
<!-- n0 -->
<g id="node1" class="node"><title>n0</title>
<polygon fill="none" stroke="black" points="119.529,-828 92.5293,-810 119.529,-792 146.529,-810 119.529,-828"/>
<text text-anchor="middle" x="119.529" y="-805.8" font-family="Times,serif" font-size="14.00">n0</text>
</g>
<!-- n13 -->
<g id="node2" class="node"><title>n13</title>
<ellipse fill="none" stroke="black" cx="81.5293" cy="-722" rx="27" ry="18"/>
<text text-anchor="middle" x="81.5293" y="-717.8" font-family="Times,serif" font-size="14.00">n13</text>
</g>
<!-- n0&#45;&gt;n13 -->
<g id="edge4" class="edge"><title>n0&#45;&gt;n13</title>
<path fill="none" stroke="black" d="M113.199,-796.105C110.017,-789.526 106.146,-781.374 102.85,-774 99.2302,-765.903 95.4453,-757.005 92.0862,-748.94"/>
<polygon fill="black" stroke="black" points="95.2916,-747.532 88.2397,-739.625 88.8216,-750.204 95.2916,-747.532"/>
<text text-anchor="middle" x="116.869" y="-761.2" font-family="Helvetica,sans-Serif" font-size="16.00" fill="red"> &#160;p &#160;</text>
</g>
<!-- n1 -->
<g id="node6" class="node"><title>n1</title>
<ellipse fill="none" stroke="black" cx="153.529" cy="-722" rx="27" ry="18"/>
<text text-anchor="middle" x="153.529" y="-717.8" font-family="Times,serif" font-size="14.00">n1</text>
</g>
<!-- n0&#45;&gt;n1 -->
<g id="edge16" class="edge"><title>n0&#45;&gt;n1</title>
<path fill="none" stroke="black" d="M124.992,-795.183C129.889,-782.797 137.203,-764.295 143.201,-749.124"/>
<polygon fill="black" stroke="black" points="146.492,-750.32 146.914,-739.733 139.982,-747.746 146.492,-750.32"/>
<text text-anchor="middle" x="151.643" y="-761.2" font-family="Helvetica,sans-Serif" font-size="16.00" fill="red"> &#160;t &#160;</text>
</g>
<!-- n14 -->
<g id="node3" class="node"><title>n14</title>
<ellipse fill="none" stroke="black" cx="81.5293" cy="-634" rx="27" ry="18"/>
<text text-anchor="middle" x="81.5293" y="-629.8" font-family="Times,serif" font-size="14.00">n14</text>
</g>
<!-- n13&#45;&gt;n14 -->
<g id="edge3" class="edge"><title>n13&#45;&gt;n14</title>
<path fill="none" stroke="black" d="M81.5293,-703.597C81.5293,-691.746 81.5293,-675.817 81.5293,-662.292"/>
<polygon fill="black" stroke="black" points="85.0294,-662.084 81.5293,-652.084 78.0294,-662.084 85.0294,-662.084"/>
<text text-anchor="middle" x="92.1972" y="-673.2" font-family="Helvetica,sans-Serif" font-size="16.00" fill="red"> &#160;i &#160;</text>
</g>
<!-- n15 -->
<g id="node4" class="node"><title>n15</title>
<ellipse fill="none" stroke="black" cx="76.5293" cy="-546" rx="27" ry="18"/>
<text text-anchor="middle" x="76.5293" y="-541.8" font-family="Times,serif" font-size="14.00">n15</text>
</g>
<!-- n14&#45;&gt;n15 -->
<g id="edge2" class="edge"><title>n14&#45;&gt;n15</title>
<path fill="none" stroke="black" d="M80.5414,-616.009C79.8542,-604.19 78.9229,-588.171 78.1305,-574.542"/>
<polygon fill="black" stroke="black" points="81.6068,-574.03 77.5322,-564.25 74.6186,-574.436 81.6068,-574.03"/>
<text text-anchor="middle" x="92.8691" y="-585.2" font-family="Helvetica,sans-Serif" font-size="16.00" fill="red"> &#160;n &#160;</text>
</g>
<!-- n16 -->
<g id="node5" class="node"><title>n16</title>
<ellipse fill="green" stroke="black" cx="60.5293" cy="-458" rx="60.5585" ry="18"/>
<text text-anchor="middle" x="60.5293" y="-453.8" font-family="Times,serif" font-size="14.00">n16 (count=1)</text>
</g>
<!-- n15&#45;&gt;n16 -->
<g id="edge1" class="edge"><title>n15&#45;&gt;n16</title>
<path fill="none" stroke="black" d="M73.3682,-528.009C71.1474,-516.073 68.1298,-499.853 65.5781,-486.138"/>
<polygon fill="black" stroke="black" points="69.0087,-485.441 63.7385,-476.25 62.1267,-486.721 69.0087,-485.441"/>
<text text-anchor="middle" x="83.8691" y="-497.2" font-family="Helvetica,sans-Serif" font-size="16.00" fill="red"> &#160;g &#160;</text>
</g>
<!-- n2 -->
<g id="node7" class="node"><title>n2</title>
<ellipse fill="none" stroke="black" cx="153.529" cy="-634" rx="27" ry="18"/>
<text text-anchor="middle" x="153.529" y="-629.8" font-family="Times,serif" font-size="14.00">n2</text>
</g>
<!-- n1&#45;&gt;n2 -->
<g id="edge15" class="edge"><title>n1&#45;&gt;n2</title>
<path fill="none" stroke="black" d="M153.529,-703.597C153.529,-691.746 153.529,-675.817 153.529,-662.292"/>
<polygon fill="black" stroke="black" points="157.029,-662.084 153.529,-652.084 150.029,-662.084 157.029,-662.084"/>
<text text-anchor="middle" x="166.869" y="-673.2" font-family="Helvetica,sans-Serif" font-size="16.00" fill="red"> &#160;e &#160;</text>
</g>
<!-- n3 -->
<g id="node8" class="node"><title>n3</title>
<ellipse fill="none" stroke="black" cx="156.529" cy="-546" rx="27" ry="18"/>
<text text-anchor="middle" x="156.529" y="-541.8" font-family="Times,serif" font-size="14.00">n3</text>
</g>
<!-- n2&#45;&gt;n3 -->
<g id="edge14" class="edge"><title>n2&#45;&gt;n3</title>
<path fill="none" stroke="black" d="M154.136,-615.597C154.55,-603.746 155.105,-587.817 155.577,-574.292"/>
<polygon fill="black" stroke="black" points="159.082,-574.2 155.933,-564.084 152.087,-573.956 159.082,-574.2"/>
<text text-anchor="middle" x="167.42" y="-585.2" font-family="Helvetica,sans-Serif" font-size="16.00" fill="red"> &#160;s &#160;</text>
</g>
<!-- n4 -->
<g id="node9" class="node"><title>n4</title>
<ellipse fill="green" stroke="black" cx="195.529" cy="-458" rx="56.2153" ry="18"/>
<text text-anchor="middle" x="195.529" y="-453.8" font-family="Times,serif" font-size="14.00">n4 (count=1)</text>
</g>
<!-- n3&#45;&gt;n4 -->
<g id="edge13" class="edge"><title>n3&#45;&gt;n4</title>
<path fill="none" stroke="black" d="M164.049,-528.418C169.588,-516.204 177.233,-499.346 183.602,-485.301"/>
<polygon fill="black" stroke="black" points="186.823,-486.672 187.766,-476.119 180.448,-483.781 186.823,-486.672"/>
<text text-anchor="middle" x="189.643" y="-497.2" font-family="Helvetica,sans-Serif" font-size="16.00" fill="red"> &#160;t &#160;</text>
</g>
<!-- n5 -->
<g id="node10" class="node"><title>n5</title>
<ellipse fill="none" stroke="black" cx="156.529" cy="-370" rx="27" ry="18"/>
<text text-anchor="middle" x="156.529" y="-365.8" font-family="Times,serif" font-size="14.00">n5</text>
</g>
<!-- n4&#45;&gt;n5 -->
<g id="edge9" class="edge"><title>n4&#45;&gt;n5</title>
<path fill="none" stroke="black" d="M186.649,-440.03C183.755,-434.341 180.585,-427.935 177.85,-422 174.137,-413.945 170.326,-405.059 166.972,-396.991"/>
<polygon fill="black" stroke="black" points="170.18,-395.59 163.145,-387.668 163.705,-398.248 170.18,-395.59"/>
<text text-anchor="middle" x="190.869" y="-409.2" font-family="Helvetica,sans-Serif" font-size="16.00" fill="red"> &#160;a &#160;</text>
</g>
<!-- n10 -->
<g id="node15" class="node"><title>n10</title>
<ellipse fill="none" stroke="black" cx="229.529" cy="-370" rx="27" ry="18"/>
<text text-anchor="middle" x="229.529" y="-365.8" font-family="Times,serif" font-size="14.00">n10</text>
</g>
<!-- n4&#45;&gt;n10 -->
<g id="edge12" class="edge"><title>n4&#45;&gt;n10</title>
<path fill="none" stroke="black" d="M202.247,-440.009C207.074,-427.798 213.674,-411.105 219.173,-397.195"/>
<polygon fill="black" stroke="black" points="222.52,-398.249 222.942,-387.663 216.01,-395.676 222.52,-398.249"/>
<text text-anchor="middle" x="226.197" y="-409.2" font-family="Helvetica,sans-Serif" font-size="16.00" fill="red"> &#160;i &#160;</text>
</g>
<!-- n6 -->
<g id="node11" class="node"><title>n6</title>
<ellipse fill="none" stroke="black" cx="146.529" cy="-282" rx="27" ry="18"/>
<text text-anchor="middle" x="146.529" y="-277.8" font-family="Times,serif" font-size="14.00">n6</text>
</g>
<!-- n5&#45;&gt;n6 -->
<g id="edge8" class="edge"><title>n5&#45;&gt;n6</title>
<path fill="none" stroke="black" d="M154.554,-352.009C153.17,-340.112 151.292,-323.961 149.701,-310.275"/>
<polygon fill="black" stroke="black" points="153.133,-309.484 148.501,-299.956 146.179,-310.293 153.133,-309.484"/>
<text text-anchor="middle" x="168.084" y="-321.2" font-family="Helvetica,sans-Serif" font-size="16.00" fill="red"> &#160;m &#160;</text>
</g>
<!-- n7 -->
<g id="node12" class="node"><title>n7</title>
<ellipse fill="none" stroke="black" cx="133.529" cy="-194" rx="27" ry="18"/>
<text text-anchor="middle" x="133.529" y="-189.8" font-family="Times,serif" font-size="14.00">n7</text>
</g>
<!-- n6&#45;&gt;n7 -->
<g id="edge7" class="edge"><title>n6&#45;&gt;n7</title>
<path fill="none" stroke="black" d="M143.961,-264.009C142.145,-251.995 139.673,-235.641 137.591,-221.869"/>
<polygon fill="black" stroke="black" points="141.048,-221.32 136.092,-211.956 134.126,-222.366 141.048,-221.32"/>
<text text-anchor="middle" x="154.869" y="-233.2" font-family="Helvetica,sans-Serif" font-size="16.00" fill="red"> &#160;e &#160;</text>
</g>
<!-- n8 -->
<g id="node13" class="node"><title>n8</title>
<ellipse fill="none" stroke="black" cx="133.529" cy="-106" rx="27" ry="18"/>
<text text-anchor="middle" x="133.529" y="-101.8" font-family="Times,serif" font-size="14.00">n8</text>
</g>
<!-- n7&#45;&gt;n8 -->
<g id="edge6" class="edge"><title>n7&#45;&gt;n8</title>
<path fill="none" stroke="black" d="M133.529,-175.597C133.529,-163.746 133.529,-147.817 133.529,-134.292"/>
<polygon fill="black" stroke="black" points="137.029,-134.084 133.529,-124.084 130.029,-134.084 137.029,-134.084"/>
<text text-anchor="middle" x="146.869" y="-145.2" font-family="Helvetica,sans-Serif" font-size="16.00" fill="red"> &#160;n &#160;</text>
</g>
<!-- n9 -->
<g id="node14" class="node"><title>n9</title>
<ellipse fill="green" stroke="black" cx="133.529" cy="-18" rx="56.2153" ry="18"/>
<text text-anchor="middle" x="133.529" y="-13.8" font-family="Times,serif" font-size="14.00">n9 (count=1)</text>
</g>
<!-- n8&#45;&gt;n9 -->
<g id="edge5" class="edge"><title>n8&#45;&gt;n9</title>
<path fill="none" stroke="black" d="M133.529,-87.5966C133.529,-75.7459 133.529,-59.8169 133.529,-46.2917"/>
<polygon fill="black" stroke="black" points="137.029,-46.084 133.529,-36.084 130.029,-46.084 137.029,-46.084"/>
<text text-anchor="middle" x="144.643" y="-57.2" font-family="Helvetica,sans-Serif" font-size="16.00" fill="red"> &#160;t &#160;</text>
</g>
<!-- n11 -->
<g id="node16" class="node"><title>n11</title>
<ellipse fill="none" stroke="black" cx="235.529" cy="-282" rx="27" ry="18"/>
<text text-anchor="middle" x="235.529" y="-277.8" font-family="Times,serif" font-size="14.00">n11</text>
</g>
<!-- n10&#45;&gt;n11 -->
<g id="edge11" class="edge"><title>n10&#45;&gt;n11</title>
<path fill="none" stroke="black" d="M230.715,-352.009C231.539,-340.19 232.657,-324.171 233.608,-310.542"/>
<polygon fill="black" stroke="black" points="237.121,-310.469 234.326,-300.25 230.138,-309.982 237.121,-310.469"/>
<text text-anchor="middle" x="245.869" y="-321.2" font-family="Helvetica,sans-Serif" font-size="16.00" fill="red"> &#160;n &#160;</text>
</g>
<!-- n12 -->
<g id="node17" class="node"><title>n12</title>
<ellipse fill="green" stroke="black" cx="239.529" cy="-194" rx="60.5585" ry="18"/>
<text text-anchor="middle" x="239.529" y="-189.8" font-family="Times,serif" font-size="14.00">n12 (count=1)</text>
</g>
<!-- n11&#45;&gt;n12 -->
<g id="edge10" class="edge"><title>n11&#45;&gt;n12</title>
<path fill="none" stroke="black" d="M236.339,-263.597C236.89,-251.746 237.631,-235.817 238.26,-222.292"/>
<polygon fill="black" stroke="black" points="241.766,-222.236 238.735,-212.084 234.774,-221.911 241.766,-222.236"/>
<text text-anchor="middle" x="250.869" y="-233.2" font-family="Helvetica,sans-Serif" font-size="16.00" fill="red"> &#160;g &#160;</text>
</g>
</g>
</svg>
