<?xml version="1.0" encoding="UTF-8" standalone="no"?>
<!DOCTYPE svg PUBLIC "-//W3C//DTD SVG 1.1//EN"
 "http://www.w3.org/Graphics/SVG/1.1/DTD/svg11.dtd">
<!-- Generated by graphviz version 2.38.0 (20140413.2041)
 -->
<!-- Title: T Pages: 1 -->
<svg width="447pt" height="836pt"
 viewBox="0.00 0.00 447.06 836.00" xmlns="http://www.w3.org/2000/svg" xmlns:xlink="http://www.w3.org/1999/xlink">
<g id="graph0" class="graph" transform="scale(1 1) rotate(0) translate(4 832)">
<title>T</title>
<polygon fill="white" stroke="none" points="-4,4 -4,-832 443.059,-832 443.059,4 -4,4"/>
<!-- n0 -->
<g id="node1" class="node"><title>n0</title>
<polygon fill="none" stroke="black" points="263.529,-828 236.529,-810 263.529,-792 290.529,-810 263.529,-828"/>
<text text-anchor="middle" x="263.529" y="-805.8" font-family="Times,serif" font-size="14.00">n0</text>
</g>
<!-- n13 -->
<g id="node2" class="node"><title>n13</title>
<ellipse fill="none" stroke="black" cx="225.529" cy="-722" rx="27" ry="18"/>
<text text-anchor="middle" x="225.529" y="-717.8" font-family="Times,serif" font-size="14.00">n13</text>
</g>
<!-- n0&#45;&gt;n13 -->
<g id="edge5" class="edge"><title>n0&#45;&gt;n13</title>
<path fill="none" stroke="black" d="M256.704,-796.167C253.301,-789.604 249.206,-781.448 245.85,-774 242.23,-765.969 238.575,-757.09 235.383,-749.021"/>
<polygon fill="black" stroke="black" points="238.641,-747.742 231.751,-739.693 232.118,-750.282 238.641,-747.742"/>
<text text-anchor="middle" x="258.869" y="-761.2" font-family="Helvetica,sans-Serif" font-size="16.00" fill="red"> &#160;p &#160;</text>
</g>
<!-- n1 -->
<g id="node7" class="node"><title>n1</title>
<ellipse fill="none" stroke="black" cx="297.529" cy="-722" rx="27" ry="18"/>
<text text-anchor="middle" x="297.529" y="-717.8" font-family="Times,serif" font-size="14.00">n1</text>
</g>
<!-- n0&#45;&gt;n1 -->
<g id="edge17" class="edge"><title>n0&#45;&gt;n1</title>
<path fill="none" stroke="black" d="M268.992,-795.183C273.889,-782.797 281.203,-764.295 287.201,-749.124"/>
<polygon fill="black" stroke="black" points="290.492,-750.32 290.914,-739.733 283.982,-747.746 290.492,-750.32"/>
<text text-anchor="middle" x="294.643" y="-761.2" font-family="Helvetica,sans-Serif" font-size="16.00" fill="red"> &#160;t &#160;</text>
</g>
<!-- n14 -->
<g id="node3" class="node"><title>n14</title>
<ellipse fill="none" stroke="black" cx="224.529" cy="-634" rx="27" ry="18"/>
<text text-anchor="middle" x="224.529" y="-629.8" font-family="Times,serif" font-size="14.00">n14</text>
</g>
<!-- n13&#45;&gt;n14 -->
<g id="edge4" class="edge"><title>n13&#45;&gt;n14</title>
<path fill="none" stroke="black" d="M225.327,-703.597C225.189,-691.746 225.004,-675.817 224.847,-662.292"/>
<polygon fill="black" stroke="black" points="228.344,-662.043 224.728,-652.084 221.345,-662.124 228.344,-662.043"/>
<text text-anchor="middle" x="235.197" y="-673.2" font-family="Helvetica,sans-Serif" font-size="16.00" fill="red"> &#160;i &#160;</text>
</g>
<!-- n15 -->
<g id="node4" class="node"><title>n15</title>
<ellipse fill="green" stroke="black" cx="199.529" cy="-546" rx="60.5585" ry="18"/>
<text text-anchor="middle" x="199.529" y="-541.8" font-family="Times,serif" font-size="14.00">n15 (count=1)</text>
</g>
<!-- n14&#45;&gt;n15 -->
<g id="edge3" class="edge"><title>n14&#45;&gt;n15</title>
<path fill="none" stroke="black" d="M219.59,-616.009C216.097,-603.995 211.343,-587.641 207.34,-573.869"/>
<polygon fill="black" stroke="black" points="210.611,-572.581 204.458,-563.956 203.889,-574.535 210.611,-572.581"/>
<text text-anchor="middle" x="226.869" y="-585.2" font-family="Helvetica,sans-Serif" font-size="16.00" fill="red"> &#160;n &#160;</text>
</g>
<!-- n17 -->
<g id="node5" class="node"><title>n17</title>
<ellipse fill="green" stroke="black" cx="60.5293" cy="-458" rx="60.5585" ry="18"/>
<text text-anchor="middle" x="60.5293" y="-453.8" font-family="Times,serif" font-size="14.00">n17 (count=1)</text>
</g>
<!-- n15&#45;&gt;n17 -->
<g id="edge1" class="edge"><title>n15&#45;&gt;n17</title>
<path fill="none" stroke="black" d="M174.357,-529.426C151.921,-515.545 118.907,-495.119 94.204,-479.835"/>
<polygon fill="black" stroke="black" points="95.8593,-476.743 85.5138,-474.458 92.1763,-482.696 95.8593,-476.743"/>
<text text-anchor="middle" x="155.42" y="-497.2" font-family="Helvetica,sans-Serif" font-size="16.00" fill="red"> &#160;k &#160;</text>
</g>
<!-- n16 -->
<g id="node6" class="node"><title>n16</title>
<ellipse fill="green" stroke="black" cx="199.529" cy="-458" rx="60.5585" ry="18"/>
<text text-anchor="middle" x="199.529" y="-453.8" font-family="Times,serif" font-size="14.00">n16 (count=1)</text>
</g>
<!-- n15&#45;&gt;n16 -->
<g id="edge2" class="edge"><title>n15&#45;&gt;n16</title>
<path fill="none" stroke="black" d="M199.529,-527.597C199.529,-515.746 199.529,-499.817 199.529,-486.292"/>
<polygon fill="black" stroke="black" points="203.029,-486.084 199.529,-476.084 196.029,-486.084 203.029,-486.084"/>
<text text-anchor="middle" x="212.869" y="-497.2" font-family="Helvetica,sans-Serif" font-size="16.00" fill="red"> &#160;g &#160;</text>
</g>
<!-- n2 -->
<g id="node8" class="node"><title>n2</title>
<ellipse fill="none" stroke="black" cx="299.529" cy="-634" rx="27" ry="18"/>
<text text-anchor="middle" x="299.529" y="-629.8" font-family="Times,serif" font-size="14.00">n2</text>
</g>
<!-- n1&#45;&gt;n2 -->
<g id="edge16" class="edge"><title>n1&#45;&gt;n2</title>
<path fill="none" stroke="black" d="M297.934,-703.597C298.21,-691.746 298.58,-675.817 298.895,-662.292"/>
<polygon fill="black" stroke="black" points="302.398,-662.163 299.132,-652.084 295.4,-662 302.398,-662.163"/>
<text text-anchor="middle" x="311.869" y="-673.2" font-family="Helvetica,sans-Serif" font-size="16.00" fill="red"> &#160;e &#160;</text>
</g>
<!-- n3 -->
<g id="node9" class="node"><title>n3</title>
<ellipse fill="none" stroke="black" cx="312.529" cy="-546" rx="27" ry="18"/>
<text text-anchor="middle" x="312.529" y="-541.8" font-family="Times,serif" font-size="14.00">n3</text>
</g>
<!-- n2&#45;&gt;n3 -->
<g id="edge15" class="edge"><title>n2&#45;&gt;n3</title>
<path fill="none" stroke="black" d="M302.098,-616.009C303.914,-603.995 306.386,-587.641 308.468,-573.869"/>
<polygon fill="black" stroke="black" points="311.932,-574.366 309.966,-563.956 305.011,-573.32 311.932,-574.366"/>
<text text-anchor="middle" x="319.42" y="-585.2" font-family="Helvetica,sans-Serif" font-size="16.00" fill="red"> &#160;s &#160;</text>
</g>
<!-- n4 -->
<g id="node10" class="node"><title>n4</title>
<ellipse fill="green" stroke="black" cx="334.529" cy="-458" rx="56.2153" ry="18"/>
<text text-anchor="middle" x="334.529" y="-453.8" font-family="Times,serif" font-size="14.00">n4 (count=1)</text>
</g>
<!-- n3&#45;&gt;n4 -->
<g id="edge14" class="edge"><title>n3&#45;&gt;n4</title>
<path fill="none" stroke="black" d="M316.876,-528.009C319.949,-515.995 324.133,-499.641 327.656,-485.869"/>
<polygon fill="black" stroke="black" points="331.104,-486.511 330.192,-475.956 324.323,-484.776 331.104,-486.511"/>
<text text-anchor="middle" x="335.643" y="-497.2" font-family="Helvetica,sans-Serif" font-size="16.00" fill="red"> &#160;t &#160;</text>
</g>
<!-- n5 -->
<g id="node11" class="node"><title>n5</title>
<ellipse fill="none" stroke="black" cx="295.529" cy="-370" rx="27" ry="18"/>
<text text-anchor="middle" x="295.529" y="-365.8" font-family="Times,serif" font-size="14.00">n5</text>
</g>
<!-- n4&#45;&gt;n5 -->
<g id="edge10" class="edge"><title>n4&#45;&gt;n5</title>
<path fill="none" stroke="black" d="M325.649,-440.03C322.755,-434.341 319.585,-427.935 316.85,-422 313.137,-413.945 309.326,-405.059 305.972,-396.991"/>
<polygon fill="black" stroke="black" points="309.18,-395.59 302.145,-387.668 302.705,-398.248 309.18,-395.59"/>
<text text-anchor="middle" x="329.869" y="-409.2" font-family="Helvetica,sans-Serif" font-size="16.00" fill="red"> &#160;a &#160;</text>
</g>
<!-- n10 -->
<g id="node16" class="node"><title>n10</title>
<ellipse fill="none" stroke="black" cx="368.529" cy="-370" rx="27" ry="18"/>
<text text-anchor="middle" x="368.529" y="-365.8" font-family="Times,serif" font-size="14.00">n10</text>
</g>
<!-- n4&#45;&gt;n10 -->
<g id="edge13" class="edge"><title>n4&#45;&gt;n10</title>
<path fill="none" stroke="black" d="M341.247,-440.009C346.074,-427.798 352.674,-411.105 358.173,-397.195"/>
<polygon fill="black" stroke="black" points="361.52,-398.249 361.942,-387.663 355.01,-395.676 361.52,-398.249"/>
<text text-anchor="middle" x="365.197" y="-409.2" font-family="Helvetica,sans-Serif" font-size="16.00" fill="red"> &#160;i &#160;</text>
</g>
<!-- n6 -->
<g id="node12" class="node"><title>n6</title>
<ellipse fill="none" stroke="black" cx="285.529" cy="-282" rx="27" ry="18"/>
<text text-anchor="middle" x="285.529" y="-277.8" font-family="Times,serif" font-size="14.00">n6</text>
</g>
<!-- n5&#45;&gt;n6 -->
<g id="edge9" class="edge"><title>n5&#45;&gt;n6</title>
<path fill="none" stroke="black" d="M293.554,-352.009C292.17,-340.112 290.292,-323.961 288.701,-310.275"/>
<polygon fill="black" stroke="black" points="292.133,-309.484 287.501,-299.956 285.179,-310.293 292.133,-309.484"/>
<text text-anchor="middle" x="306.084" y="-321.2" font-family="Helvetica,sans-Serif" font-size="16.00" fill="red"> &#160;m &#160;</text>
</g>
<!-- n7 -->
<g id="node13" class="node"><title>n7</title>
<ellipse fill="none" stroke="black" cx="272.529" cy="-194" rx="27" ry="18"/>
<text text-anchor="middle" x="272.529" y="-189.8" font-family="Times,serif" font-size="14.00">n7</text>
</g>
<!-- n6&#45;&gt;n7 -->
<g id="edge8" class="edge"><title>n6&#45;&gt;n7</title>
<path fill="none" stroke="black" d="M282.961,-264.009C281.145,-251.995 278.673,-235.641 276.591,-221.869"/>
<polygon fill="black" stroke="black" points="280.048,-221.32 275.092,-211.956 273.126,-222.366 280.048,-221.32"/>
<text text-anchor="middle" x="292.869" y="-233.2" font-family="Helvetica,sans-Serif" font-size="16.00" fill="red"> &#160;e &#160;</text>
</g>
<!-- n8 -->
<g id="node14" class="node"><title>n8</title>
<ellipse fill="none" stroke="black" cx="272.529" cy="-106" rx="27" ry="18"/>
<text text-anchor="middle" x="272.529" y="-101.8" font-family="Times,serif" font-size="14.00">n8</text>
</g>
<!-- n7&#45;&gt;n8 -->
<g id="edge7" class="edge"><title>n7&#45;&gt;n8</title>
<path fill="none" stroke="black" d="M272.529,-175.597C272.529,-163.746 272.529,-147.817 272.529,-134.292"/>
<polygon fill="black" stroke="black" points="276.029,-134.084 272.529,-124.084 269.029,-134.084 276.029,-134.084"/>
<text text-anchor="middle" x="285.869" y="-145.2" font-family="Helvetica,sans-Serif" font-size="16.00" fill="red"> &#160;n &#160;</text>
</g>
<!-- n9 -->
<g id="node15" class="node"><title>n9</title>
<ellipse fill="green" stroke="black" cx="272.529" cy="-18" rx="56.2153" ry="18"/>
<text text-anchor="middle" x="272.529" y="-13.8" font-family="Times,serif" font-size="14.00">n9 (count=1)</text>
</g>
<!-- n8&#45;&gt;n9 -->
<g id="edge6" class="edge"><title>n8&#45;&gt;n9</title>
<path fill="none" stroke="black" d="M272.529,-87.5966C272.529,-75.7459 272.529,-59.8169 272.529,-46.2917"/>
<polygon fill="black" stroke="black" points="276.029,-46.084 272.529,-36.084 269.029,-46.084 276.029,-46.084"/>
<text text-anchor="middle" x="283.643" y="-57.2" font-family="Helvetica,sans-Serif" font-size="16.00" fill="red"> &#160;t &#160;</text>
</g>
<!-- n11 -->
<g id="node17" class="node"><title>n11</title>
<ellipse fill="none" stroke="black" cx="374.529" cy="-282" rx="27" ry="18"/>
<text text-anchor="middle" x="374.529" y="-277.8" font-family="Times,serif" font-size="14.00">n11</text>
</g>
<!-- n10&#45;&gt;n11 -->
<g id="edge12" class="edge"><title>n10&#45;&gt;n11</title>
<path fill="none" stroke="black" d="M369.715,-352.009C370.539,-340.19 371.657,-324.171 372.608,-310.542"/>
<polygon fill="black" stroke="black" points="376.121,-310.469 373.326,-300.25 369.138,-309.982 376.121,-310.469"/>
<text text-anchor="middle" x="384.869" y="-321.2" font-family="Helvetica,sans-Serif" font-size="16.00" fill="red"> &#160;n &#160;</text>
</g>
<!-- n12 -->
<g id="node18" class="node"><title>n12</title>
<ellipse fill="green" stroke="black" cx="378.529" cy="-194" rx="60.5585" ry="18"/>
<text text-anchor="middle" x="378.529" y="-189.8" font-family="Times,serif" font-size="14.00">n12 (count=1)</text>
</g>
<!-- n11&#45;&gt;n12 -->
<g id="edge11" class="edge"><title>n11&#45;&gt;n12</title>
<path fill="none" stroke="black" d="M375.339,-263.597C375.89,-251.746 376.631,-235.817 377.26,-222.292"/>
<polygon fill="black" stroke="black" points="380.766,-222.236 377.735,-212.084 373.774,-221.911 380.766,-222.236"/>
<text text-anchor="middle" x="389.869" y="-233.2" font-family="Helvetica,sans-Serif" font-size="16.00" fill="red"> &#160;g &#160;</text>
</g>
</g>
</svg>
