<?xml version="1.0" encoding="UTF-8" standalone="no"?>
<!DOCTYPE svg PUBLIC "-//W3C//DTD SVG 1.1//EN"
 "http://www.w3.org/Graphics/SVG/1.1/DTD/svg11.dtd">
<!-- Generated by graphviz version 2.38.0 (20140413.2041)
 -->
<!-- Title: T Pages: 1 -->
<svg width="586pt" height="836pt"
 viewBox="0.00 0.00 586.06 836.00" xmlns="http://www.w3.org/2000/svg" xmlns:xlink="http://www.w3.org/1999/xlink">
<g id="graph0" class="graph" transform="scale(1 1) rotate(0) translate(4 832)">
<title>T</title>
<polygon fill="white" stroke="none" points="-4,4 -4,-832 582.059,-832 582.059,4 -4,4"/>
<!-- n0 -->
<g id="node1" class="node"><title>n0</title>
<polygon fill="none" stroke="black" points="332.529,-828 305.529,-810 332.529,-792 359.529,-810 332.529,-828"/>
<text text-anchor="middle" x="332.529" y="-805.8" font-family="Times,serif" font-size="14.00">n0</text>
</g>
<!-- n13 -->
<g id="node2" class="node"><title>n13</title>
<ellipse fill="none" stroke="black" cx="294.529" cy="-722" rx="27" ry="18"/>
<text text-anchor="middle" x="294.529" y="-717.8" font-family="Times,serif" font-size="14.00">n13</text>
</g>
<!-- n0&#45;&gt;n13 -->
<g id="edge6" class="edge"><title>n0&#45;&gt;n13</title>
<path fill="none" stroke="black" d="M325.704,-796.167C322.301,-789.604 318.206,-781.448 314.85,-774 311.23,-765.969 307.575,-757.09 304.383,-749.021"/>
<polygon fill="black" stroke="black" points="307.641,-747.742 300.751,-739.693 301.118,-750.282 307.641,-747.742"/>
<text text-anchor="middle" x="327.869" y="-761.2" font-family="Helvetica,sans-Serif" font-size="16.00" fill="red"> &#160;p &#160;</text>
</g>
<!-- n1 -->
<g id="node8" class="node"><title>n1</title>
<ellipse fill="none" stroke="black" cx="366.529" cy="-722" rx="27" ry="18"/>
<text text-anchor="middle" x="366.529" y="-717.8" font-family="Times,serif" font-size="14.00">n1</text>
</g>
<!-- n0&#45;&gt;n1 -->
<g id="edge18" class="edge"><title>n0&#45;&gt;n1</title>
<path fill="none" stroke="black" d="M337.992,-795.183C342.889,-782.797 350.203,-764.295 356.201,-749.124"/>
<polygon fill="black" stroke="black" points="359.492,-750.32 359.914,-739.733 352.982,-747.746 359.492,-750.32"/>
<text text-anchor="middle" x="363.643" y="-761.2" font-family="Helvetica,sans-Serif" font-size="16.00" fill="red"> &#160;t &#160;</text>
</g>
<!-- n14 -->
<g id="node3" class="node"><title>n14</title>
<ellipse fill="none" stroke="black" cx="290.529" cy="-634" rx="27" ry="18"/>
<text text-anchor="middle" x="290.529" y="-629.8" font-family="Times,serif" font-size="14.00">n14</text>
</g>
<!-- n13&#45;&gt;n14 -->
<g id="edge5" class="edge"><title>n13&#45;&gt;n14</title>
<path fill="none" stroke="black" d="M293.72,-703.597C293.169,-691.746 292.428,-675.817 291.799,-662.292"/>
<polygon fill="black" stroke="black" points="295.285,-661.911 291.324,-652.084 288.292,-662.236 295.285,-661.911"/>
<text text-anchor="middle" x="303.197" y="-673.2" font-family="Helvetica,sans-Serif" font-size="16.00" fill="red"> &#160;i &#160;</text>
</g>
<!-- n15 -->
<g id="node4" class="node"><title>n15</title>
<ellipse fill="green" stroke="black" cx="230.529" cy="-546" rx="60.5585" ry="18"/>
<text text-anchor="middle" x="230.529" y="-541.8" font-family="Times,serif" font-size="14.00">n15 (count=1)</text>
</g>
<!-- n14&#45;&gt;n15 -->
<g id="edge4" class="edge"><title>n14&#45;&gt;n15</title>
<path fill="none" stroke="black" d="M279.524,-617.226C270.783,-604.697 258.387,-586.93 248.251,-572.401"/>
<polygon fill="black" stroke="black" points="250.877,-570.048 242.285,-563.85 245.136,-574.054 250.877,-570.048"/>
<text text-anchor="middle" x="278.869" y="-585.2" font-family="Helvetica,sans-Serif" font-size="16.00" fill="red"> &#160;n &#160;</text>
</g>
<!-- n17 -->
<g id="node5" class="node"><title>n17</title>
<ellipse fill="green" stroke="black" cx="60.5293" cy="-458" rx="60.5585" ry="18"/>
<text text-anchor="middle" x="60.5293" y="-453.8" font-family="Times,serif" font-size="14.00">n17 (count=1)</text>
</g>
<!-- n15&#45;&gt;n17 -->
<g id="edge1" class="edge"><title>n15&#45;&gt;n17</title>
<path fill="none" stroke="black" d="M201.305,-530.216C173.086,-515.941 130.184,-494.237 99.1587,-478.542"/>
<polygon fill="black" stroke="black" points="100.444,-475.27 89.9409,-473.879 97.2841,-481.516 100.444,-475.27"/>
<text text-anchor="middle" x="174.42" y="-497.2" font-family="Helvetica,sans-Serif" font-size="16.00" fill="red"> &#160;k &#160;</text>
</g>
<!-- n18 -->
<g id="node6" class="node"><title>n18</title>
<ellipse fill="green" stroke="black" cx="199.529" cy="-458" rx="60.5585" ry="18"/>
<text text-anchor="middle" x="199.529" y="-453.8" font-family="Times,serif" font-size="14.00">n18 (count=1)</text>
</g>
<!-- n15&#45;&gt;n18 -->
<g id="edge2" class="edge"><title>n15&#45;&gt;n18</title>
<path fill="none" stroke="black" d="M224.405,-528.009C220.031,-515.877 214.063,-499.32 209.069,-485.465"/>
<polygon fill="black" stroke="black" points="212.325,-484.176 205.641,-475.956 205.74,-486.55 212.325,-484.176"/>
<text text-anchor="middle" x="231.869" y="-497.2" font-family="Helvetica,sans-Serif" font-size="16.00" fill="red"> &#160;e &#160;</text>
</g>
<!-- n16 -->
<g id="node7" class="node"><title>n16</title>
<ellipse fill="green" stroke="black" cx="338.529" cy="-458" rx="60.5585" ry="18"/>
<text text-anchor="middle" x="338.529" y="-453.8" font-family="Times,serif" font-size="14.00">n16 (count=1)</text>
</g>
<!-- n15&#45;&gt;n16 -->
<g id="edge3" class="edge"><title>n15&#45;&gt;n16</title>
<path fill="none" stroke="black" d="M250.843,-528.824C267.663,-515.431 291.742,-496.256 310.414,-481.388"/>
<polygon fill="black" stroke="black" points="312.664,-484.071 318.306,-475.103 308.303,-478.595 312.664,-484.071"/>
<text text-anchor="middle" x="306.869" y="-497.2" font-family="Helvetica,sans-Serif" font-size="16.00" fill="red"> &#160;g &#160;</text>
</g>
<!-- n2 -->
<g id="node9" class="node"><title>n2</title>
<ellipse fill="none" stroke="black" cx="368.529" cy="-634" rx="27" ry="18"/>
<text text-anchor="middle" x="368.529" y="-629.8" font-family="Times,serif" font-size="14.00">n2</text>
</g>
<!-- n1&#45;&gt;n2 -->
<g id="edge17" class="edge"><title>n1&#45;&gt;n2</title>
<path fill="none" stroke="black" d="M366.934,-703.597C367.21,-691.746 367.58,-675.817 367.895,-662.292"/>
<polygon fill="black" stroke="black" points="371.398,-662.163 368.132,-652.084 364.4,-662 371.398,-662.163"/>
<text text-anchor="middle" x="380.869" y="-673.2" font-family="Helvetica,sans-Serif" font-size="16.00" fill="red"> &#160;e &#160;</text>
</g>
<!-- n3 -->
<g id="node10" class="node"><title>n3</title>
<ellipse fill="none" stroke="black" cx="398.529" cy="-546" rx="27" ry="18"/>
<text text-anchor="middle" x="398.529" y="-541.8" font-family="Times,serif" font-size="14.00">n3</text>
</g>
<!-- n2&#45;&gt;n3 -->
<g id="edge16" class="edge"><title>n2&#45;&gt;n3</title>
<path fill="none" stroke="black" d="M374.456,-616.009C378.716,-603.798 384.539,-587.105 389.391,-573.195"/>
<polygon fill="black" stroke="black" points="392.728,-574.258 392.717,-563.663 386.118,-571.952 392.728,-574.258"/>
<text text-anchor="middle" x="398.42" y="-585.2" font-family="Helvetica,sans-Serif" font-size="16.00" fill="red"> &#160;s &#160;</text>
</g>
<!-- n4 -->
<g id="node11" class="node"><title>n4</title>
<ellipse fill="green" stroke="black" cx="473.529" cy="-458" rx="56.2153" ry="18"/>
<text text-anchor="middle" x="473.529" y="-453.8" font-family="Times,serif" font-size="14.00">n4 (count=1)</text>
</g>
<!-- n3&#45;&gt;n4 -->
<g id="edge15" class="edge"><title>n3&#45;&gt;n4</title>
<path fill="none" stroke="black" d="M411.593,-530.02C422.783,-517.189 439.115,-498.462 452.198,-483.459"/>
<polygon fill="black" stroke="black" points="455.145,-485.406 459.08,-475.569 449.869,-480.805 455.145,-485.406"/>
<text text-anchor="middle" x="453.643" y="-497.2" font-family="Helvetica,sans-Serif" font-size="16.00" fill="red"> &#160;t &#160;</text>
</g>
<!-- n5 -->
<g id="node12" class="node"><title>n5</title>
<ellipse fill="none" stroke="black" cx="434.529" cy="-370" rx="27" ry="18"/>
<text text-anchor="middle" x="434.529" y="-365.8" font-family="Times,serif" font-size="14.00">n5</text>
</g>
<!-- n4&#45;&gt;n5 -->
<g id="edge11" class="edge"><title>n4&#45;&gt;n5</title>
<path fill="none" stroke="black" d="M464.649,-440.03C461.755,-434.341 458.585,-427.935 455.85,-422 452.137,-413.945 448.326,-405.059 444.972,-396.991"/>
<polygon fill="black" stroke="black" points="448.18,-395.59 441.145,-387.668 441.705,-398.248 448.18,-395.59"/>
<text text-anchor="middle" x="468.869" y="-409.2" font-family="Helvetica,sans-Serif" font-size="16.00" fill="red"> &#160;a &#160;</text>
</g>
<!-- n10 -->
<g id="node17" class="node"><title>n10</title>
<ellipse fill="none" stroke="black" cx="507.529" cy="-370" rx="27" ry="18"/>
<text text-anchor="middle" x="507.529" y="-365.8" font-family="Times,serif" font-size="14.00">n10</text>
</g>
<!-- n4&#45;&gt;n10 -->
<g id="edge14" class="edge"><title>n4&#45;&gt;n10</title>
<path fill="none" stroke="black" d="M480.247,-440.009C485.074,-427.798 491.674,-411.105 497.173,-397.195"/>
<polygon fill="black" stroke="black" points="500.52,-398.249 500.942,-387.663 494.01,-395.676 500.52,-398.249"/>
<text text-anchor="middle" x="504.197" y="-409.2" font-family="Helvetica,sans-Serif" font-size="16.00" fill="red"> &#160;i &#160;</text>
</g>
<!-- n6 -->
<g id="node13" class="node"><title>n6</title>
<ellipse fill="none" stroke="black" cx="424.529" cy="-282" rx="27" ry="18"/>
<text text-anchor="middle" x="424.529" y="-277.8" font-family="Times,serif" font-size="14.00">n6</text>
</g>
<!-- n5&#45;&gt;n6 -->
<g id="edge10" class="edge"><title>n5&#45;&gt;n6</title>
<path fill="none" stroke="black" d="M432.554,-352.009C431.17,-340.112 429.292,-323.961 427.701,-310.275"/>
<polygon fill="black" stroke="black" points="431.133,-309.484 426.501,-299.956 424.179,-310.293 431.133,-309.484"/>
<text text-anchor="middle" x="445.084" y="-321.2" font-family="Helvetica,sans-Serif" font-size="16.00" fill="red"> &#160;m &#160;</text>
</g>
<!-- n7 -->
<g id="node14" class="node"><title>n7</title>
<ellipse fill="none" stroke="black" cx="411.529" cy="-194" rx="27" ry="18"/>
<text text-anchor="middle" x="411.529" y="-189.8" font-family="Times,serif" font-size="14.00">n7</text>
</g>
<!-- n6&#45;&gt;n7 -->
<g id="edge9" class="edge"><title>n6&#45;&gt;n7</title>
<path fill="none" stroke="black" d="M421.961,-264.009C420.145,-251.995 417.673,-235.641 415.591,-221.869"/>
<polygon fill="black" stroke="black" points="419.048,-221.32 414.092,-211.956 412.126,-222.366 419.048,-221.32"/>
<text text-anchor="middle" x="431.869" y="-233.2" font-family="Helvetica,sans-Serif" font-size="16.00" fill="red"> &#160;e &#160;</text>
</g>
<!-- n8 -->
<g id="node15" class="node"><title>n8</title>
<ellipse fill="none" stroke="black" cx="411.529" cy="-106" rx="27" ry="18"/>
<text text-anchor="middle" x="411.529" y="-101.8" font-family="Times,serif" font-size="14.00">n8</text>
</g>
<!-- n7&#45;&gt;n8 -->
<g id="edge8" class="edge"><title>n7&#45;&gt;n8</title>
<path fill="none" stroke="black" d="M411.529,-175.597C411.529,-163.746 411.529,-147.817 411.529,-134.292"/>
<polygon fill="black" stroke="black" points="415.029,-134.084 411.529,-124.084 408.029,-134.084 415.029,-134.084"/>
<text text-anchor="middle" x="424.869" y="-145.2" font-family="Helvetica,sans-Serif" font-size="16.00" fill="red"> &#160;n &#160;</text>
</g>
<!-- n9 -->
<g id="node16" class="node"><title>n9</title>
<ellipse fill="green" stroke="black" cx="411.529" cy="-18" rx="56.2153" ry="18"/>
<text text-anchor="middle" x="411.529" y="-13.8" font-family="Times,serif" font-size="14.00">n9 (count=1)</text>
</g>
<!-- n8&#45;&gt;n9 -->
<g id="edge7" class="edge"><title>n8&#45;&gt;n9</title>
<path fill="none" stroke="black" d="M411.529,-87.5966C411.529,-75.7459 411.529,-59.8169 411.529,-46.2917"/>
<polygon fill="black" stroke="black" points="415.029,-46.084 411.529,-36.084 408.029,-46.084 415.029,-46.084"/>
<text text-anchor="middle" x="422.643" y="-57.2" font-family="Helvetica,sans-Serif" font-size="16.00" fill="red"> &#160;t &#160;</text>
</g>
<!-- n11 -->
<g id="node18" class="node"><title>n11</title>
<ellipse fill="none" stroke="black" cx="513.529" cy="-282" rx="27" ry="18"/>
<text text-anchor="middle" x="513.529" y="-277.8" font-family="Times,serif" font-size="14.00">n11</text>
</g>
<!-- n10&#45;&gt;n11 -->
<g id="edge13" class="edge"><title>n10&#45;&gt;n11</title>
<path fill="none" stroke="black" d="M508.715,-352.009C509.539,-340.19 510.657,-324.171 511.608,-310.542"/>
<polygon fill="black" stroke="black" points="515.121,-310.469 512.326,-300.25 508.138,-309.982 515.121,-310.469"/>
<text text-anchor="middle" x="523.869" y="-321.2" font-family="Helvetica,sans-Serif" font-size="16.00" fill="red"> &#160;n &#160;</text>
</g>
<!-- n12 -->
<g id="node19" class="node"><title>n12</title>
<ellipse fill="green" stroke="black" cx="517.529" cy="-194" rx="60.5585" ry="18"/>
<text text-anchor="middle" x="517.529" y="-189.8" font-family="Times,serif" font-size="14.00">n12 (count=1)</text>
</g>
<!-- n11&#45;&gt;n12 -->
<g id="edge12" class="edge"><title>n11&#45;&gt;n12</title>
<path fill="none" stroke="black" d="M514.339,-263.597C514.89,-251.746 515.631,-235.817 516.26,-222.292"/>
<polygon fill="black" stroke="black" points="519.766,-222.236 516.735,-212.084 512.774,-221.911 519.766,-222.236"/>
<text text-anchor="middle" x="528.869" y="-233.2" font-family="Helvetica,sans-Serif" font-size="16.00" fill="red"> &#160;g &#160;</text>
</g>
</g>
</svg>
