<?xml version="1.0" encoding="UTF-8" standalone="no"?>
<!DOCTYPE svg PUBLIC "-//W3C//DTD SVG 1.1//EN"
 "http://www.w3.org/Graphics/SVG/1.1/DTD/svg11.dtd">
<!-- Generated by graphviz version 2.38.0 (20140413.2041)
 -->
<!-- Title: T Pages: 1 -->
<svg width="231pt" height="836pt"
 viewBox="0.00 0.00 230.64 836.00" xmlns="http://www.w3.org/2000/svg" xmlns:xlink="http://www.w3.org/1999/xlink">
<g id="graph0" class="graph" transform="scale(1 1) rotate(0) translate(4 832)">
<title>T</title>
<polygon fill="white" stroke="none" points="-4,4 -4,-832 226.637,-832 226.637,4 -4,4"/>
<!-- n0 -->
<g id="node1" class="node"><title>n0</title>
<polygon fill="none" stroke="black" points="118.108,-828 91.1075,-810 118.108,-792 145.108,-810 118.108,-828"/>
<text text-anchor="middle" x="118.108" y="-805.8" font-family="Times,serif" font-size="14.00">n0</text>
</g>
<!-- n1 -->
<g id="node2" class="node"><title>n1</title>
<ellipse fill="none" stroke="black" cx="118.108" cy="-722" rx="27" ry="18"/>
<text text-anchor="middle" x="118.108" y="-717.8" font-family="Times,serif" font-size="14.00">n1</text>
</g>
<!-- n0&#45;&gt;n1 -->
<g id="edge12" class="edge"><title>n0&#45;&gt;n1</title>
<path fill="none" stroke="black" d="M118.108,-791.597C118.108,-779.746 118.108,-763.817 118.108,-750.292"/>
<polygon fill="black" stroke="black" points="121.608,-750.084 118.108,-740.084 114.608,-750.084 121.608,-750.084"/>
<text text-anchor="middle" x="129.221" y="-761.2" font-family="Helvetica,sans-Serif" font-size="16.00" fill="red"> &#160;t &#160;</text>
</g>
<!-- n2 -->
<g id="node3" class="node"><title>n2</title>
<ellipse fill="none" stroke="black" cx="118.108" cy="-634" rx="27" ry="18"/>
<text text-anchor="middle" x="118.108" y="-629.8" font-family="Times,serif" font-size="14.00">n2</text>
</g>
<!-- n1&#45;&gt;n2 -->
<g id="edge11" class="edge"><title>n1&#45;&gt;n2</title>
<path fill="none" stroke="black" d="M118.108,-703.597C118.108,-691.746 118.108,-675.817 118.108,-662.292"/>
<polygon fill="black" stroke="black" points="121.608,-662.084 118.108,-652.084 114.608,-662.084 121.608,-662.084"/>
<text text-anchor="middle" x="131.447" y="-673.2" font-family="Helvetica,sans-Serif" font-size="16.00" fill="red"> &#160;e &#160;</text>
</g>
<!-- n3 -->
<g id="node4" class="node"><title>n3</title>
<ellipse fill="none" stroke="black" cx="118.108" cy="-546" rx="27" ry="18"/>
<text text-anchor="middle" x="118.108" y="-541.8" font-family="Times,serif" font-size="14.00">n3</text>
</g>
<!-- n2&#45;&gt;n3 -->
<g id="edge10" class="edge"><title>n2&#45;&gt;n3</title>
<path fill="none" stroke="black" d="M118.108,-615.597C118.108,-603.746 118.108,-587.817 118.108,-574.292"/>
<polygon fill="black" stroke="black" points="121.608,-574.084 118.108,-564.084 114.608,-574.084 121.608,-574.084"/>
<text text-anchor="middle" x="130.998" y="-585.2" font-family="Helvetica,sans-Serif" font-size="16.00" fill="red"> &#160;s &#160;</text>
</g>
<!-- n4 -->
<g id="node5" class="node"><title>n4</title>
<ellipse fill="green" stroke="black" cx="118.108" cy="-458" rx="56.2153" ry="18"/>
<text text-anchor="middle" x="118.108" y="-453.8" font-family="Times,serif" font-size="14.00">n4 (count=1)</text>
</g>
<!-- n3&#45;&gt;n4 -->
<g id="edge9" class="edge"><title>n3&#45;&gt;n4</title>
<path fill="none" stroke="black" d="M118.108,-527.597C118.108,-515.746 118.108,-499.817 118.108,-486.292"/>
<polygon fill="black" stroke="black" points="121.608,-486.084 118.108,-476.084 114.608,-486.084 121.608,-486.084"/>
<text text-anchor="middle" x="129.221" y="-497.2" font-family="Helvetica,sans-Serif" font-size="16.00" fill="red"> &#160;t &#160;</text>
</g>
<!-- n5 -->
<g id="node6" class="node"><title>n5</title>
<ellipse fill="none" stroke="black" cx="79.1075" cy="-370" rx="27" ry="18"/>
<text text-anchor="middle" x="79.1075" y="-365.8" font-family="Times,serif" font-size="14.00">n5</text>
</g>
<!-- n4&#45;&gt;n5 -->
<g id="edge5" class="edge"><title>n4&#45;&gt;n5</title>
<path fill="none" stroke="black" d="M109.853,-439.962C107.131,-434.269 104.114,-427.877 101.428,-422 97.7152,-413.876 93.7741,-404.97 90.2534,-396.906"/>
<polygon fill="black" stroke="black" points="93.4045,-395.376 86.211,-387.597 86.9837,-398.164 93.4045,-395.376"/>
<text text-anchor="middle" x="115.447" y="-409.2" font-family="Helvetica,sans-Serif" font-size="16.00" fill="red"> &#160;a &#160;</text>
</g>
<!-- n10 -->
<g id="node11" class="node"><title>n10</title>
<ellipse fill="none" stroke="black" cx="152.108" cy="-370" rx="27" ry="18"/>
<text text-anchor="middle" x="152.108" y="-365.8" font-family="Times,serif" font-size="14.00">n10</text>
</g>
<!-- n4&#45;&gt;n10 -->
<g id="edge8" class="edge"><title>n4&#45;&gt;n10</title>
<path fill="none" stroke="black" d="M124.825,-440.009C129.652,-427.798 136.252,-411.105 141.751,-397.195"/>
<polygon fill="black" stroke="black" points="145.098,-398.249 145.52,-387.663 138.588,-395.676 145.098,-398.249"/>
<text text-anchor="middle" x="149.775" y="-409.2" font-family="Helvetica,sans-Serif" font-size="16.00" fill="red"> &#160;i &#160;</text>
</g>
<!-- n6 -->
<g id="node7" class="node"><title>n6</title>
<ellipse fill="none" stroke="black" cx="69.1075" cy="-282" rx="27" ry="18"/>
<text text-anchor="middle" x="69.1075" y="-277.8" font-family="Times,serif" font-size="14.00">n6</text>
</g>
<!-- n5&#45;&gt;n6 -->
<g id="edge4" class="edge"><title>n5&#45;&gt;n6</title>
<path fill="none" stroke="black" d="M77.1318,-352.009C75.7485,-340.112 73.8705,-323.961 72.279,-310.275"/>
<polygon fill="black" stroke="black" points="75.7108,-309.484 71.0791,-299.956 68.7576,-310.293 75.7108,-309.484"/>
<text text-anchor="middle" x="90.6622" y="-321.2" font-family="Helvetica,sans-Serif" font-size="16.00" fill="red"> &#160;m &#160;</text>
</g>
<!-- n7 -->
<g id="node8" class="node"><title>n7</title>
<ellipse fill="none" stroke="black" cx="56.1075" cy="-194" rx="27" ry="18"/>
<text text-anchor="middle" x="56.1075" y="-189.8" font-family="Times,serif" font-size="14.00">n7</text>
</g>
<!-- n6&#45;&gt;n7 -->
<g id="edge3" class="edge"><title>n6&#45;&gt;n7</title>
<path fill="none" stroke="black" d="M66.5391,-264.009C64.723,-251.995 62.2509,-235.641 60.1691,-221.869"/>
<polygon fill="black" stroke="black" points="63.626,-221.32 58.6706,-211.956 56.7046,-222.366 63.626,-221.32"/>
<text text-anchor="middle" x="77.4474" y="-233.2" font-family="Helvetica,sans-Serif" font-size="16.00" fill="red"> &#160;e &#160;</text>
</g>
<!-- n8 -->
<g id="node9" class="node"><title>n8</title>
<ellipse fill="none" stroke="black" cx="56.1075" cy="-106" rx="27" ry="18"/>
<text text-anchor="middle" x="56.1075" y="-101.8" font-family="Times,serif" font-size="14.00">n8</text>
</g>
<!-- n7&#45;&gt;n8 -->
<g id="edge2" class="edge"><title>n7&#45;&gt;n8</title>
<path fill="none" stroke="black" d="M56.1075,-175.597C56.1075,-163.746 56.1075,-147.817 56.1075,-134.292"/>
<polygon fill="black" stroke="black" points="59.6076,-134.084 56.1075,-124.084 52.6076,-134.084 59.6076,-134.084"/>
<text text-anchor="middle" x="69.4474" y="-145.2" font-family="Helvetica,sans-Serif" font-size="16.00" fill="red"> &#160;n &#160;</text>
</g>
<!-- n9 -->
<g id="node10" class="node"><title>n9</title>
<ellipse fill="green" stroke="black" cx="56.1075" cy="-18" rx="56.2153" ry="18"/>
<text text-anchor="middle" x="56.1075" y="-13.8" font-family="Times,serif" font-size="14.00">n9 (count=1)</text>
</g>
<!-- n8&#45;&gt;n9 -->
<g id="edge1" class="edge"><title>n8&#45;&gt;n9</title>
<path fill="none" stroke="black" d="M56.1075,-87.5966C56.1075,-75.7459 56.1075,-59.8169 56.1075,-46.2917"/>
<polygon fill="black" stroke="black" points="59.6076,-46.084 56.1075,-36.084 52.6076,-46.084 59.6076,-46.084"/>
<text text-anchor="middle" x="67.2208" y="-57.2" font-family="Helvetica,sans-Serif" font-size="16.00" fill="red"> &#160;t &#160;</text>
</g>
<!-- n11 -->
<g id="node12" class="node"><title>n11</title>
<ellipse fill="none" stroke="black" cx="158.108" cy="-282" rx="27" ry="18"/>
<text text-anchor="middle" x="158.108" y="-277.8" font-family="Times,serif" font-size="14.00">n11</text>
</g>
<!-- n10&#45;&gt;n11 -->
<g id="edge7" class="edge"><title>n10&#45;&gt;n11</title>
<path fill="none" stroke="black" d="M153.293,-352.009C154.118,-340.19 155.235,-324.171 156.186,-310.542"/>
<polygon fill="black" stroke="black" points="159.699,-310.469 156.904,-300.25 152.716,-309.982 159.699,-310.469"/>
<text text-anchor="middle" x="169.447" y="-321.2" font-family="Helvetica,sans-Serif" font-size="16.00" fill="red"> &#160;n &#160;</text>
</g>
<!-- n12 -->
<g id="node13" class="node"><title>n12</title>
<ellipse fill="green" stroke="black" cx="162.108" cy="-194" rx="60.5585" ry="18"/>
<text text-anchor="middle" x="162.108" y="-189.8" font-family="Times,serif" font-size="14.00">n12 (count=1)</text>
</g>
<!-- n11&#45;&gt;n12 -->
<g id="edge6" class="edge"><title>n11&#45;&gt;n12</title>
<path fill="none" stroke="black" d="M158.917,-263.597C159.468,-251.746 160.209,-235.817 160.838,-222.292"/>
<polygon fill="black" stroke="black" points="164.344,-222.236 161.313,-212.084 157.352,-221.911 164.344,-222.236"/>
<text text-anchor="middle" x="174.447" y="-233.2" font-family="Helvetica,sans-Serif" font-size="16.00" fill="red"> &#160;g &#160;</text>
</g>
</g>
</svg>
